<svg width="393" height="393" viewBox="0 0 393 393" fill="none" xmlns="http://www.w3.org/2000/svg">
<mask id="mask0_35_2164" style="mask-type:alpha" maskUnits="userSpaceOnUse" x="0" y="0" width="393" height="393">
<rect width="393" height="393" fill="#C8C8C8"/>
</mask>
<g mask="url(#mask0_35_2164)">
<rect x="0.5" y="0.5" width="392" height="392" fill="#3B3B3B" stroke="#A2A2A2"/>
<line x1="768.285" y1="-34.9085" x2="280.72" y2="452.657" stroke="#A2A2A2" stroke-width="2"/>
<line x1="861.623" y1="-34.9085" x2="374.057" y2="452.657" stroke="#A2A2A2" stroke-width="2"/>
<line x1="744.951" y1="-34.9085" x2="257.385" y2="452.657" stroke="#A2A2A2" stroke-width="2"/>
<line x1="838.288" y1="-34.9085" x2="350.723" y2="452.657" stroke="#A2A2A2" stroke-width="2"/>
<line x1="721.617" y1="-34.9085" x2="234.051" y2="452.657" stroke="#A2A2A2" stroke-width="2"/>
<line x1="814.954" y1="-34.9085" x2="327.389" y2="452.657" stroke="#A2A2A2" stroke-width="2"/>
<line x1="698.282" y1="-34.9085" x2="210.716" y2="452.657" stroke="#A2A2A2" stroke-width="2"/>
<line x1="791.62" y1="-34.9085" x2="304.054" y2="452.657" stroke="#A2A2A2" stroke-width="2"/>
<line x1="674.948" y1="-34.9085" x2="187.382" y2="452.657" stroke="#A2A2A2" stroke-width="2"/>
<line x1="651.613" y1="-34.9085" x2="164.048" y2="452.657" stroke="#A2A2A2" stroke-width="2"/>
<line x1="628.279" y1="-34.9085" x2="140.713" y2="452.657" stroke="#A2A2A2" stroke-width="2"/>
<line x1="604.945" y1="-34.9085" x2="117.379" y2="452.657" stroke="#A2A2A2" stroke-width="2"/>
<line x1="581.61" y1="-34.9085" x2="94.0445" y2="452.657" stroke="#A2A2A2" stroke-width="2"/>
<line x1="558.276" y1="-34.9085" x2="70.7103" y2="452.657" stroke="#A2A2A2" stroke-width="2"/>
<line x1="534.941" y1="-34.9085" x2="47.3758" y2="452.657" stroke="#A2A2A2" stroke-width="2"/>
<line x1="511.607" y1="-34.9085" x2="24.0414" y2="452.657" stroke="#A2A2A2" stroke-width="2"/>
<line x1="488.273" y1="-34.9085" x2="0.707126" y2="452.657" stroke="#A2A2A2" stroke-width="2"/>
<line x1="464.938" y1="-34.9085" x2="-22.6273" y2="452.657" stroke="#A2A2A2" stroke-width="2"/>
<line x1="441.604" y1="-34.9085" x2="-45.9616" y2="452.657" stroke="#A2A2A2" stroke-width="2"/>
<line x1="418.27" y1="-34.9085" x2="-69.2961" y2="452.657" stroke="#A2A2A2" stroke-width="2"/>
<line x1="394.935" y1="-34.9085" x2="-92.6305" y2="452.657" stroke="#A2A2A2" stroke-width="2"/>
<line x1="371.601" y1="-34.9085" x2="-115.965" y2="452.657" stroke="#A2A2A2" stroke-width="2"/>
<line x1="348.266" y1="-34.9085" x2="-139.299" y2="452.657" stroke="#A2A2A2" stroke-width="2"/>
<line x1="324.932" y1="-34.9085" x2="-162.633" y2="452.657" stroke="#A2A2A2" stroke-width="2"/>
<line x1="301.598" y1="-34.9085" x2="-185.968" y2="452.657" stroke="#A2A2A2" stroke-width="2"/>
<line x1="278.263" y1="-34.9085" x2="-209.302" y2="452.657" stroke="#A2A2A2" stroke-width="2"/>
<line x1="254.929" y1="-34.9085" x2="-232.637" y2="452.657" stroke="#A2A2A2" stroke-width="2"/>
<line x1="231.595" y1="-34.9085" x2="-255.971" y2="452.657" stroke="#A2A2A2" stroke-width="2"/>
<line x1="208.26" y1="-34.9085" x2="-279.305" y2="452.657" stroke="#A2A2A2" stroke-width="2"/>
<line x1="184.926" y1="-34.9085" x2="-302.64" y2="452.657" stroke="#A2A2A2" stroke-width="2"/>
<line x1="161.591" y1="-34.9085" x2="-325.974" y2="452.657" stroke="#A2A2A2" stroke-width="2"/>
<line x1="138.257" y1="-34.9085" x2="-349.309" y2="452.657" stroke="#A2A2A2" stroke-width="2"/>
<line x1="114.923" y1="-34.9085" x2="-372.643" y2="452.657" stroke="#A2A2A2" stroke-width="2"/>
<line x1="91.5885" y1="-34.9085" x2="-395.977" y2="452.657" stroke="#A2A2A2" stroke-width="2"/>
<line x1="68.254" y1="-34.9085" x2="-419.312" y2="452.657" stroke="#A2A2A2" stroke-width="2"/>
<line x1="44.9195" y1="-34.9085" x2="-442.646" y2="452.657" stroke="#A2A2A2" stroke-width="2"/>
<line x1="21.5853" y1="-34.9085" x2="-465.98" y2="452.657" stroke="#A2A2A2" stroke-width="2"/>
</g>
</svg>
