<svg width="393" height="1122" viewBox="0 0 393 1122" fill="none" xmlns="http://www.w3.org/2000/svg">
<mask id="mask0_47_1296" style="mask-type:alpha" maskUnits="userSpaceOnUse" x="0" y="0" width="393" height="1122">
<rect width="393" height="1122" fill="#E7E7E7"/>
</mask>
<g mask="url(#mask0_47_1296)">
<rect width="393" height="1122" fill="#E7E7E7"/>
<line opacity="0.2" x1="357.248" y1="-27.2929" x2="-820.752" y2="1150.71" stroke="#A2A2A2" stroke-width="2"/>
<line opacity="0.2" x1="506.441" y1="-27.2929" x2="-671.56" y2="1150.71" stroke="#A2A2A2" stroke-width="2"/>
<line opacity="0.2" x1="319.95" y1="-27.2929" x2="-858.05" y2="1150.71" stroke="#A2A2A2" stroke-width="2"/>
<line opacity="0.2" x1="469.143" y1="-27.2929" x2="-708.857" y2="1150.71" stroke="#A2A2A2" stroke-width="2"/>
<line opacity="0.2" x1="282.651" y1="-27.2929" x2="-895.349" y2="1150.71" stroke="#A2A2A2" stroke-width="2"/>
<line opacity="0.2" x1="431.844" y1="-27.2929" x2="-746.156" y2="1150.71" stroke="#A2A2A2" stroke-width="2"/>
<line opacity="0.2" x1="245.354" y1="-27.2929" x2="-932.646" y2="1150.71" stroke="#A2A2A2" stroke-width="2"/>
<line opacity="0.2" x1="394.546" y1="-27.2929" x2="-783.454" y2="1150.71" stroke="#A2A2A2" stroke-width="2"/>
<line opacity="0.2" x1="208.056" y1="-27.2929" x2="-969.944" y2="1150.71" stroke="#A2A2A2" stroke-width="2"/>
<line opacity="0.2" x1="170.757" y1="-27.2929" x2="-1007.24" y2="1150.71" stroke="#A2A2A2" stroke-width="2"/>
<line opacity="0.2" x1="133.459" y1="-27.2929" x2="-1044.54" y2="1150.71" stroke="#A2A2A2" stroke-width="2"/>
<line opacity="0.2" x1="96.1612" y1="-27.2929" x2="-1081.84" y2="1150.71" stroke="#A2A2A2" stroke-width="2"/>
<line opacity="0.2" x1="58.8629" y1="-27.2929" x2="-1119.14" y2="1150.71" stroke="#A2A2A2" stroke-width="2"/>
<line opacity="0.2" x1="21.5645" y1="-27.2929" x2="-1156.44" y2="1150.71" stroke="#A2A2A2" stroke-width="2"/>
<line opacity="0.2" x1="1550.79" y1="-27.2929" x2="372.789" y2="1150.71" stroke="#A2A2A2" stroke-width="2"/>
<line opacity="0.2" x1="1513.49" y1="-27.2929" x2="335.491" y2="1150.71" stroke="#A2A2A2" stroke-width="2"/>
<line opacity="0.2" x1="1476.19" y1="-27.2929" x2="298.192" y2="1150.71" stroke="#A2A2A2" stroke-width="2"/>
<line opacity="0.2" x1="1438.89" y1="-27.2929" x2="260.895" y2="1150.71" stroke="#A2A2A2" stroke-width="2"/>
<line opacity="0.2" x1="1401.6" y1="-27.2929" x2="223.596" y2="1150.71" stroke="#A2A2A2" stroke-width="2"/>
<line opacity="0.2" x1="1364.3" y1="-27.2929" x2="186.298" y2="1150.71" stroke="#A2A2A2" stroke-width="2"/>
<line opacity="0.2" x1="1327" y1="-27.2929" x2="149" y2="1150.71" stroke="#A2A2A2" stroke-width="2"/>
<line opacity="0.2" x1="1289.7" y1="-27.2929" x2="111.702" y2="1150.71" stroke="#A2A2A2" stroke-width="2"/>
<line opacity="0.2" x1="1252.4" y1="-27.2929" x2="74.4034" y2="1150.71" stroke="#A2A2A2" stroke-width="2"/>
<line opacity="0.2" x1="1215.11" y1="-27.2929" x2="37.1055" y2="1150.71" stroke="#A2A2A2" stroke-width="2"/>
<line opacity="0.2" x1="1177.81" y1="-27.2929" x2="-0.192306" y2="1150.71" stroke="#A2A2A2" stroke-width="2"/>
<line opacity="0.2" x1="1140.51" y1="-27.2929" x2="-37.4906" y2="1150.71" stroke="#A2A2A2" stroke-width="2"/>
<line opacity="0.2" x1="1103.21" y1="-27.2929" x2="-74.789" y2="1150.71" stroke="#A2A2A2" stroke-width="2"/>
<line opacity="0.2" x1="1065.91" y1="-27.2929" x2="-112.087" y2="1150.71" stroke="#A2A2A2" stroke-width="2"/>
<line opacity="0.2" x1="1028.61" y1="-27.2929" x2="-149.385" y2="1150.71" stroke="#A2A2A2" stroke-width="2"/>
<line opacity="0.2" x1="991.316" y1="-27.2929" x2="-186.684" y2="1150.71" stroke="#A2A2A2" stroke-width="2"/>
<line opacity="0.2" x1="954.019" y1="-27.2929" x2="-223.981" y2="1150.71" stroke="#A2A2A2" stroke-width="2"/>
<line opacity="0.2" x1="916.72" y1="-27.2929" x2="-261.28" y2="1150.71" stroke="#A2A2A2" stroke-width="2"/>
<line opacity="0.2" x1="879.422" y1="-27.2929" x2="-298.578" y2="1150.71" stroke="#A2A2A2" stroke-width="2"/>
<line opacity="0.2" x1="842.124" y1="-27.2929" x2="-335.876" y2="1150.71" stroke="#A2A2A2" stroke-width="2"/>
<line opacity="0.2" x1="804.826" y1="-27.2929" x2="-373.174" y2="1150.71" stroke="#A2A2A2" stroke-width="2"/>
<line opacity="0.2" x1="767.527" y1="-27.2929" x2="-410.473" y2="1150.71" stroke="#A2A2A2" stroke-width="2"/>
<line opacity="0.2" x1="730.23" y1="-27.2929" x2="-447.77" y2="1150.71" stroke="#A2A2A2" stroke-width="2"/>
<line opacity="0.2" x1="692.932" y1="-27.2929" x2="-485.068" y2="1150.71" stroke="#A2A2A2" stroke-width="2"/>
<line opacity="0.2" x1="655.633" y1="-27.2929" x2="-522.367" y2="1150.71" stroke="#A2A2A2" stroke-width="2"/>
<line opacity="0.2" x1="618.335" y1="-27.2929" x2="-559.665" y2="1150.71" stroke="#A2A2A2" stroke-width="2"/>
<line opacity="0.2" x1="581.037" y1="-27.2929" x2="-596.963" y2="1150.71" stroke="#A2A2A2" stroke-width="2"/>
<line opacity="0.2" x1="543.739" y1="-27.2929" x2="-634.261" y2="1150.71" stroke="#A2A2A2" stroke-width="2"/>
</g>
</svg>
