<svg width="393" height="60" viewBox="0 0 393 60" fill="none" xmlns="http://www.w3.org/2000/svg">
<mask id="mask0_47_1736" style="mask-type:alpha" maskUnits="userSpaceOnUse" x="0" y="0" width="393" height="60">
<rect width="393" height="60" fill="#3B3B3B"/>
</mask>
<g mask="url(#mask0_47_1736)">
<rect width="393" height="60" fill="#3B3B3B"/>
<line opacity="0.2" y1="-1" x2="1714.25" y2="-1" transform="matrix(-0.706616 0.707598 -0.706616 -0.707598 165.163 -658)" stroke="#A2A2A2" stroke-width="2"/>
<line opacity="0.2" y1="-1" x2="1714.25" y2="-1" transform="matrix(-0.706616 0.707598 -0.706616 -0.707598 249.047 -658)" stroke="#A2A2A2" stroke-width="2"/>
<line opacity="0.2" y1="-1" x2="1714.25" y2="-1" transform="matrix(-0.706616 0.707598 -0.706616 -0.707598 144.192 -658)" stroke="#A2A2A2" stroke-width="2"/>
<line opacity="0.2" y1="-1" x2="1714.25" y2="-1" transform="matrix(-0.706616 0.707598 -0.706616 -0.707598 228.076 -658)" stroke="#A2A2A2" stroke-width="2"/>
<line opacity="0.2" y1="-1" x2="1714.25" y2="-1" transform="matrix(-0.706616 0.707598 -0.706616 -0.707598 123.222 -658)" stroke="#A2A2A2" stroke-width="2"/>
<line opacity="0.2" y1="-1" x2="1714.25" y2="-1" transform="matrix(-0.706616 0.707598 -0.706616 -0.707598 207.105 -658)" stroke="#A2A2A2" stroke-width="2"/>
<line opacity="0.2" y1="-1" x2="1714.25" y2="-1" transform="matrix(-0.706616 0.707598 -0.706616 -0.707598 102.251 -658)" stroke="#A2A2A2" stroke-width="2"/>
<line opacity="0.2" y1="-1" x2="1714.25" y2="-1" transform="matrix(-0.706616 0.707598 -0.706616 -0.707598 186.134 -658)" stroke="#A2A2A2" stroke-width="2"/>
<line opacity="0.2" y1="-1" x2="1714.25" y2="-1" transform="matrix(-0.706616 0.707598 -0.706616 -0.707598 81.2798 -658)" stroke="#A2A2A2" stroke-width="2"/>
<line opacity="0.2" y1="-1" x2="1714.25" y2="-1" transform="matrix(-0.706616 0.707598 -0.706616 -0.707598 60.3091 -658)" stroke="#A2A2A2" stroke-width="2"/>
<line opacity="0.2" y1="-1" x2="1714.25" y2="-1" transform="matrix(-0.706616 0.707598 -0.706616 -0.707598 39.3381 -658)" stroke="#A2A2A2" stroke-width="2"/>
<line opacity="0.2" y1="-1" x2="1714.25" y2="-1" transform="matrix(-0.706616 0.707598 -0.706616 -0.707598 18.3672 -658)" stroke="#A2A2A2" stroke-width="2"/>
<line opacity="0.2" y1="-1" x2="1714.25" y2="-1" transform="matrix(-0.706616 0.707598 -0.706616 -0.707598 1213.71 -658)" stroke="#A2A2A2" stroke-width="2"/>
<line opacity="0.2" y1="-1" x2="1714.25" y2="-1" transform="matrix(-0.706616 0.707598 -0.706616 -0.707598 1381.47 -658)" stroke="#A2A2A2" stroke-width="2"/>
<line opacity="0.2" y1="-1" x2="1714.25" y2="-1" transform="matrix(-0.706616 0.707598 -0.706616 -0.707598 1171.76 -658)" stroke="#A2A2A2" stroke-width="2"/>
<line opacity="0.2" y1="-1" x2="1714.25" y2="-1" transform="matrix(-0.706616 0.707598 -0.706616 -0.707598 1339.53 -658)" stroke="#A2A2A2" stroke-width="2"/>
<line opacity="0.2" y1="-1" x2="1714.25" y2="-1" transform="matrix(-0.706616 0.707598 -0.706616 -0.707598 1129.82 -658)" stroke="#A2A2A2" stroke-width="2"/>
<line opacity="0.2" y1="-1" x2="1714.25" y2="-1" transform="matrix(-0.706616 0.707598 -0.706616 -0.707598 1297.59 -658)" stroke="#A2A2A2" stroke-width="2"/>
<line opacity="0.2" y1="-1" x2="1714.25" y2="-1" transform="matrix(-0.706616 0.707598 -0.706616 -0.707598 1591.18 -658)" stroke="#A2A2A2" stroke-width="2"/>
<line opacity="0.2" y1="-1" x2="1714.25" y2="-1" transform="matrix(-0.706616 0.707598 -0.706616 -0.707598 1549.24 -658)" stroke="#A2A2A2" stroke-width="2"/>
<line opacity="0.2" y1="-1" x2="1714.25" y2="-1" transform="matrix(-0.706616 0.707598 -0.706616 -0.707598 1507.3 -658)" stroke="#A2A2A2" stroke-width="2"/>
<line opacity="0.2" y1="-1" x2="1714.25" y2="-1" transform="matrix(-0.706616 0.707598 -0.706616 -0.707598 1465.36 -658)" stroke="#A2A2A2" stroke-width="2"/>
<line opacity="0.2" y1="-1" x2="1714.25" y2="-1" transform="matrix(-0.706616 0.707598 -0.706616 -0.707598 1423.41 -658)" stroke="#A2A2A2" stroke-width="2"/>
<line opacity="0.2" y1="-1" x2="1714.25" y2="-1" transform="matrix(-0.706616 0.707598 -0.706616 -0.707598 1087.88 -658)" stroke="#A2A2A2" stroke-width="2"/>
<line opacity="0.2" y1="-1" x2="1714.25" y2="-1" transform="matrix(-0.706616 0.707598 -0.706616 -0.707598 1255.65 -658)" stroke="#A2A2A2" stroke-width="2"/>
<line opacity="0.2" y1="-1" x2="1714.25" y2="-1" transform="matrix(-0.706616 0.707598 -0.706616 -0.707598 1045.94 -658)" stroke="#A2A2A2" stroke-width="2"/>
<line opacity="0.2" y1="-1" x2="1714.25" y2="-1" transform="matrix(-0.706616 0.707598 -0.706616 -0.707598 1004 -658)" stroke="#A2A2A2" stroke-width="2"/>
<line opacity="0.2" y1="-1" x2="1714.25" y2="-1" transform="matrix(-0.706616 0.707598 -0.706616 -0.707598 962.056 -658)" stroke="#A2A2A2" stroke-width="2"/>
<line opacity="0.2" y1="-1" x2="1714.25" y2="-1" transform="matrix(-0.706616 0.707598 -0.706616 -0.707598 920.114 -658)" stroke="#A2A2A2" stroke-width="2"/>
<line opacity="0.2" y1="-1" x2="1714.25" y2="-1" transform="matrix(-0.706616 0.707598 -0.706616 -0.707598 1570.21 -658)" stroke="#A2A2A2" stroke-width="2"/>
<line opacity="0.2" y1="-1" x2="1714.25" y2="-1" transform="matrix(-0.706616 0.707598 -0.706616 -0.707598 878.172 -658)" stroke="#A2A2A2" stroke-width="2"/>
<line opacity="0.2" y1="-1" x2="1714.25" y2="-1" transform="matrix(-0.706616 0.707598 -0.706616 -0.707598 1528.27 -658)" stroke="#A2A2A2" stroke-width="2"/>
<line opacity="0.2" y1="-1" x2="1714.25" y2="-1" transform="matrix(-0.706616 0.707598 -0.706616 -0.707598 836.23 -658)" stroke="#A2A2A2" stroke-width="2"/>
<line opacity="0.2" y1="-1" x2="1714.25" y2="-1" transform="matrix(-0.706616 0.707598 -0.706616 -0.707598 1486.33 -658)" stroke="#A2A2A2" stroke-width="2"/>
<line opacity="0.2" y1="-1" x2="1714.25" y2="-1" transform="matrix(-0.706616 0.707598 -0.706616 -0.707598 794.289 -658)" stroke="#A2A2A2" stroke-width="2"/>
<line opacity="0.2" y1="-1" x2="1714.25" y2="-1" transform="matrix(-0.706616 0.707598 -0.706616 -0.707598 1444.39 -658)" stroke="#A2A2A2" stroke-width="2"/>
<line opacity="0.2" y1="-1" x2="1714.25" y2="-1" transform="matrix(-0.706616 0.707598 -0.706616 -0.707598 752.347 -658)" stroke="#A2A2A2" stroke-width="2"/>
<line opacity="0.2" y1="-1" x2="1714.25" y2="-1" transform="matrix(-0.706616 0.707598 -0.706616 -0.707598 1402.44 -658)" stroke="#A2A2A2" stroke-width="2"/>
<line opacity="0.2" y1="-1" x2="1714.25" y2="-1" transform="matrix(-0.706616 0.707598 -0.706616 -0.707598 710.406 -658)" stroke="#A2A2A2" stroke-width="2"/>
<line opacity="0.2" y1="-1" x2="1714.25" y2="-1" transform="matrix(-0.706616 0.707598 -0.706616 -0.707598 1360.5 -658)" stroke="#A2A2A2" stroke-width="2"/>
<line opacity="0.2" y1="-1" x2="1714.25" y2="-1" transform="matrix(-0.706616 0.707598 -0.706616 -0.707598 668.464 -658)" stroke="#A2A2A2" stroke-width="2"/>
<line opacity="0.2" y1="-1" x2="1714.25" y2="-1" transform="matrix(-0.706616 0.707598 -0.706616 -0.707598 1318.56 -658)" stroke="#A2A2A2" stroke-width="2"/>
<line opacity="0.2" y1="-1" x2="1714.25" y2="-1" transform="matrix(-0.706616 0.707598 -0.706616 -0.707598 647.493 -658)" stroke="#A2A2A2" stroke-width="2"/>
<line opacity="0.2" y1="-1" x2="1714.25" y2="-1" transform="matrix(-0.706616 0.707598 -0.706616 -0.707598 1276.62 -658)" stroke="#A2A2A2" stroke-width="2"/>
<line opacity="0.2" y1="-1" x2="1714.25" y2="-1" transform="matrix(-0.706616 0.707598 -0.706616 -0.707598 626.522 -658)" stroke="#A2A2A2" stroke-width="2"/>
<line opacity="0.2" y1="-1" x2="1714.25" y2="-1" transform="matrix(-0.706616 0.707598 -0.706616 -0.707598 1234.68 -658)" stroke="#A2A2A2" stroke-width="2"/>
<line opacity="0.2" y1="-1" x2="1714.25" y2="-1" transform="matrix(-0.706616 0.707598 -0.706616 -0.707598 605.551 -658)" stroke="#A2A2A2" stroke-width="2"/>
<line opacity="0.2" y1="-1" x2="1714.25" y2="-1" transform="matrix(-0.706616 0.707598 -0.706616 -0.707598 1192.74 -658)" stroke="#A2A2A2" stroke-width="2"/>
<line opacity="0.2" y1="-1" x2="1714.25" y2="-1" transform="matrix(-0.706616 0.707598 -0.706616 -0.707598 584.58 -658)" stroke="#A2A2A2" stroke-width="2"/>
<line opacity="0.2" y1="-1" x2="1714.25" y2="-1" transform="matrix(-0.706616 0.707598 -0.706616 -0.707598 1150.79 -658)" stroke="#A2A2A2" stroke-width="2"/>
<line opacity="0.2" y1="-1" x2="1714.25" y2="-1" transform="matrix(-0.706616 0.707598 -0.706616 -0.707598 563.609 -658)" stroke="#A2A2A2" stroke-width="2"/>
<line opacity="0.2" y1="-1" x2="1714.25" y2="-1" transform="matrix(-0.706616 0.707598 -0.706616 -0.707598 1108.85 -658)" stroke="#A2A2A2" stroke-width="2"/>
<line opacity="0.2" y1="-1" x2="1714.25" y2="-1" transform="matrix(-0.706616 0.707598 -0.706616 -0.707598 542.639 -658)" stroke="#A2A2A2" stroke-width="2"/>
<line opacity="0.2" y1="-1" x2="1714.25" y2="-1" transform="matrix(-0.706616 0.707598 -0.706616 -0.707598 1066.91 -658)" stroke="#A2A2A2" stroke-width="2"/>
<line opacity="0.2" y1="-1" x2="1714.25" y2="-1" transform="matrix(-0.706616 0.707598 -0.706616 -0.707598 521.668 -658)" stroke="#A2A2A2" stroke-width="2"/>
<line opacity="0.2" y1="-1" x2="1714.25" y2="-1" transform="matrix(-0.706616 0.707598 -0.706616 -0.707598 1024.97 -658)" stroke="#A2A2A2" stroke-width="2"/>
<line opacity="0.2" y1="-1" x2="1714.25" y2="-1" transform="matrix(-0.706616 0.707598 -0.706616 -0.707598 500.697 -658)" stroke="#A2A2A2" stroke-width="2"/>
<line opacity="0.2" y1="-1" x2="1714.25" y2="-1" transform="matrix(-0.706616 0.707598 -0.706616 -0.707598 983.026 -658)" stroke="#A2A2A2" stroke-width="2"/>
<line opacity="0.2" y1="-1" x2="1714.25" y2="-1" transform="matrix(-0.706616 0.707598 -0.706616 -0.707598 479.726 -658)" stroke="#A2A2A2" stroke-width="2"/>
<line opacity="0.2" y1="-1" x2="1714.25" y2="-1" transform="matrix(-0.706616 0.707598 -0.706616 -0.707598 941.085 -658)" stroke="#A2A2A2" stroke-width="2"/>
<line opacity="0.2" y1="-1" x2="1714.25" y2="-1" transform="matrix(-0.706616 0.707598 -0.706616 -0.707598 458.755 -658)" stroke="#A2A2A2" stroke-width="2"/>
<line opacity="0.2" y1="-1" x2="1714.25" y2="-1" transform="matrix(-0.706616 0.707598 -0.706616 -0.707598 899.143 -658)" stroke="#A2A2A2" stroke-width="2"/>
<line opacity="0.2" y1="-1" x2="1714.25" y2="-1" transform="matrix(-0.706616 0.707598 -0.706616 -0.707598 437.784 -658)" stroke="#A2A2A2" stroke-width="2"/>
<line opacity="0.2" y1="-1" x2="1714.25" y2="-1" transform="matrix(-0.706616 0.707598 -0.706616 -0.707598 857.201 -658)" stroke="#A2A2A2" stroke-width="2"/>
<line opacity="0.2" y1="-1" x2="1714.25" y2="-1" transform="matrix(-0.706616 0.707598 -0.706616 -0.707598 416.813 -658)" stroke="#A2A2A2" stroke-width="2"/>
<line opacity="0.2" y1="-1" x2="1714.25" y2="-1" transform="matrix(-0.706616 0.707598 -0.706616 -0.707598 815.26 -658)" stroke="#A2A2A2" stroke-width="2"/>
<line opacity="0.2" y1="-1" x2="1714.25" y2="-1" transform="matrix(-0.706616 0.707598 -0.706616 -0.707598 395.843 -658)" stroke="#A2A2A2" stroke-width="2"/>
<line opacity="0.2" y1="-1" x2="1714.25" y2="-1" transform="matrix(-0.706616 0.707598 -0.706616 -0.707598 773.318 -658)" stroke="#A2A2A2" stroke-width="2"/>
<line opacity="0.2" y1="-1" x2="1714.25" y2="-1" transform="matrix(-0.706616 0.707598 -0.706616 -0.707598 374.872 -658)" stroke="#A2A2A2" stroke-width="2"/>
<line opacity="0.2" y1="-1" x2="1714.25" y2="-1" transform="matrix(-0.706616 0.707598 -0.706616 -0.707598 731.376 -658)" stroke="#A2A2A2" stroke-width="2"/>
<line opacity="0.2" y1="-1" x2="1714.25" y2="-1" transform="matrix(-0.706616 0.707598 -0.706616 -0.707598 353.901 -658)" stroke="#A2A2A2" stroke-width="2"/>
<line opacity="0.2" y1="-1" x2="1714.25" y2="-1" transform="matrix(-0.706616 0.707598 -0.706616 -0.707598 689.435 -658)" stroke="#A2A2A2" stroke-width="2"/>
<line opacity="0.2" y1="-1" x2="1714.25" y2="-1" transform="matrix(-0.706616 0.707598 -0.706616 -0.707598 332.93 -658)" stroke="#A2A2A2" stroke-width="2"/>
<line opacity="0.2" y1="-1" x2="1714.25" y2="-1" transform="matrix(-0.706616 0.707598 -0.706616 -0.707598 311.959 -658)" stroke="#A2A2A2" stroke-width="2"/>
<line opacity="0.2" y1="-1" x2="1714.25" y2="-1" transform="matrix(-0.706616 0.707598 -0.706616 -0.707598 290.988 -658)" stroke="#A2A2A2" stroke-width="2"/>
<line opacity="0.2" y1="-1" x2="1714.25" y2="-1" transform="matrix(-0.706616 0.707598 -0.706616 -0.707598 270.018 -658)" stroke="#A2A2A2" stroke-width="2"/>
</g>
</svg>
