<svg width="393" height="760" viewBox="0 0 393 760" fill="none" xmlns="http://www.w3.org/2000/svg">
<mask id="mask0_36_2425" style="mask-type:alpha" maskUnits="userSpaceOnUse" x="0" y="0" width="393" height="760">
<rect x="0.5" y="0.5" width="392" height="759" fill="#E7E7E7" stroke="#A2A2A2"/>
</mask>
<g mask="url(#mask0_36_2425)">
<rect x="0.5" y="0.5" width="392" height="759" fill="#E7E7E7" stroke="#A2A2A2"/>
<line opacity="0.2" x1="824.707" y1="1.70711" x2="66.7071" y2="759.707" stroke="#A2A2A2" stroke-width="2"/>
<line opacity="0.2" x1="920.707" y1="1.70711" x2="162.707" y2="759.707" stroke="#A2A2A2" stroke-width="2"/>
<line opacity="0.2" x1="800.707" y1="1.70711" x2="42.7071" y2="759.707" stroke="#A2A2A2" stroke-width="2"/>
<line opacity="0.2" x1="896.707" y1="1.70711" x2="138.707" y2="759.707" stroke="#A2A2A2" stroke-width="2"/>
<line opacity="0.2" x1="776.707" y1="1.70711" x2="18.7071" y2="759.707" stroke="#A2A2A2" stroke-width="2"/>
<line opacity="0.2" x1="872.707" y1="1.70711" x2="114.707" y2="759.707" stroke="#A2A2A2" stroke-width="2"/>
<line opacity="0.2" x1="752.707" y1="1.70711" x2="-5.29288" y2="759.707" stroke="#A2A2A2" stroke-width="2"/>
<line opacity="0.2" x1="848.707" y1="1.70711" x2="90.7071" y2="759.707" stroke="#A2A2A2" stroke-width="2"/>
<line opacity="0.2" x1="728.707" y1="1.70711" x2="-29.2929" y2="759.707" stroke="#A2A2A2" stroke-width="2"/>
<line opacity="0.2" x1="704.707" y1="1.70711" x2="-53.2929" y2="759.707" stroke="#A2A2A2" stroke-width="2"/>
<line opacity="0.2" x1="680.707" y1="1.70711" x2="-77.2929" y2="759.707" stroke="#A2A2A2" stroke-width="2"/>
<line opacity="0.2" x1="656.707" y1="1.70711" x2="-101.293" y2="759.707" stroke="#A2A2A2" stroke-width="2"/>
<line opacity="0.2" x1="632.707" y1="1.70711" x2="-125.293" y2="759.707" stroke="#A2A2A2" stroke-width="2"/>
<line opacity="0.2" x1="608.707" y1="1.70711" x2="-149.293" y2="759.707" stroke="#A2A2A2" stroke-width="2"/>
<line opacity="0.2" x1="584.707" y1="1.70711" x2="-173.293" y2="759.707" stroke="#A2A2A2" stroke-width="2"/>
<line opacity="0.2" x1="560.707" y1="1.70711" x2="-197.293" y2="759.707" stroke="#A2A2A2" stroke-width="2"/>
<line opacity="0.2" x1="536.707" y1="1.70711" x2="-221.293" y2="759.707" stroke="#A2A2A2" stroke-width="2"/>
<line opacity="0.2" x1="512.707" y1="1.70711" x2="-245.293" y2="759.707" stroke="#A2A2A2" stroke-width="2"/>
<line opacity="0.2" x1="488.707" y1="1.70711" x2="-269.293" y2="759.707" stroke="#A2A2A2" stroke-width="2"/>
<line opacity="0.2" x1="464.707" y1="1.70711" x2="-293.293" y2="759.707" stroke="#A2A2A2" stroke-width="2"/>
<line opacity="0.2" x1="440.707" y1="1.70711" x2="-317.293" y2="759.707" stroke="#A2A2A2" stroke-width="2"/>
<line opacity="0.2" x1="416.707" y1="1.70711" x2="-341.293" y2="759.707" stroke="#A2A2A2" stroke-width="2"/>
<line opacity="0.2" x1="392.707" y1="1.70711" x2="-365.293" y2="759.707" stroke="#A2A2A2" stroke-width="2"/>
<line opacity="0.2" x1="368.707" y1="1.70711" x2="-389.293" y2="759.707" stroke="#A2A2A2" stroke-width="2"/>
<line opacity="0.2" x1="344.707" y1="1.70711" x2="-413.293" y2="759.707" stroke="#A2A2A2" stroke-width="2"/>
<line opacity="0.2" x1="320.707" y1="1.70711" x2="-437.293" y2="759.707" stroke="#A2A2A2" stroke-width="2"/>
<line opacity="0.2" x1="296.707" y1="1.70711" x2="-461.293" y2="759.707" stroke="#A2A2A2" stroke-width="2"/>
<line opacity="0.2" x1="272.707" y1="1.70711" x2="-485.293" y2="759.707" stroke="#A2A2A2" stroke-width="2"/>
<line opacity="0.2" x1="248.707" y1="1.70711" x2="-509.293" y2="759.707" stroke="#A2A2A2" stroke-width="2"/>
<line opacity="0.2" x1="224.707" y1="1.70711" x2="-533.293" y2="759.707" stroke="#A2A2A2" stroke-width="2"/>
<line opacity="0.2" x1="200.707" y1="1.70711" x2="-557.293" y2="759.707" stroke="#A2A2A2" stroke-width="2"/>
<line opacity="0.2" x1="176.707" y1="1.70711" x2="-581.293" y2="759.707" stroke="#A2A2A2" stroke-width="2"/>
<line opacity="0.2" x1="152.707" y1="1.70711" x2="-605.293" y2="759.707" stroke="#A2A2A2" stroke-width="2"/>
<line opacity="0.2" x1="128.707" y1="1.70711" x2="-629.293" y2="759.707" stroke="#A2A2A2" stroke-width="2"/>
<line opacity="0.2" x1="104.707" y1="1.70711" x2="-653.293" y2="759.707" stroke="#A2A2A2" stroke-width="2"/>
<line opacity="0.2" x1="80.7071" y1="1.70711" x2="-677.293" y2="759.707" stroke="#A2A2A2" stroke-width="2"/>
<line opacity="0.2" x1="56.7071" y1="1.70711" x2="-701.293" y2="759.707" stroke="#A2A2A2" stroke-width="2"/>
<line opacity="0.2" x1="1136.71" y1="1.70711" x2="378.707" y2="759.707" stroke="#A2A2A2" stroke-width="2"/>
<line opacity="0.2" x1="1112.71" y1="1.70711" x2="354.707" y2="759.707" stroke="#A2A2A2" stroke-width="2"/>
<line opacity="0.2" x1="1088.71" y1="1.70711" x2="330.707" y2="759.707" stroke="#A2A2A2" stroke-width="2"/>
<line opacity="0.2" x1="1064.71" y1="1.70711" x2="306.707" y2="759.707" stroke="#A2A2A2" stroke-width="2"/>
<line opacity="0.2" x1="1040.71" y1="1.70711" x2="282.707" y2="759.707" stroke="#A2A2A2" stroke-width="2"/>
<line opacity="0.2" x1="1016.71" y1="1.70711" x2="258.707" y2="759.707" stroke="#A2A2A2" stroke-width="2"/>
<line opacity="0.2" x1="992.707" y1="1.70711" x2="234.707" y2="759.707" stroke="#A2A2A2" stroke-width="2"/>
<line opacity="0.2" x1="968.707" y1="1.70711" x2="210.707" y2="759.707" stroke="#A2A2A2" stroke-width="2"/>
<line opacity="0.2" x1="944.707" y1="1.70711" x2="186.707" y2="759.707" stroke="#A2A2A2" stroke-width="2"/>
</g>
</svg>
