<svg width="393" height="394" viewBox="0 0 393 394" fill="none" xmlns="http://www.w3.org/2000/svg">
<mask id="mask0_36_2523" style="mask-type:alpha" maskUnits="userSpaceOnUse" x="0" y="0" width="394" height="394">
<rect width="394" height="394" fill="#C8C8C8"/>
</mask>
<g mask="url(#mask0_36_2523)">
<rect x="0.5" y="0.5" width="393" height="393" fill="#3B3B3B" stroke="#A2A2A2"/>
<line x1="715.11" y1="1.91926" x2="323.41" y2="393.62" stroke="#A2A2A2" stroke-width="2"/>
<line x1="690.614" y1="1.91926" x2="298.914" y2="393.62" stroke="#A2A2A2" stroke-width="2"/>
<line x1="666.118" y1="1.91926" x2="274.417" y2="393.62" stroke="#A2A2A2" stroke-width="2"/>
<line x1="764.103" y1="1.91926" x2="372.402" y2="393.62" stroke="#A2A2A2" stroke-width="2"/>
<line x1="641.622" y1="1.91926" x2="249.922" y2="393.62" stroke="#A2A2A2" stroke-width="2"/>
<line x1="739.607" y1="1.91926" x2="347.907" y2="393.62" stroke="#A2A2A2" stroke-width="2"/>
<line x1="617.126" y1="1.91926" x2="225.425" y2="393.62" stroke="#A2A2A2" stroke-width="2"/>
<line x1="592.629" y1="1.91926" x2="200.929" y2="393.62" stroke="#A2A2A2" stroke-width="2"/>
<line x1="568.133" y1="1.91926" x2="176.432" y2="393.62" stroke="#A2A2A2" stroke-width="2"/>
<line x1="543.637" y1="1.91926" x2="151.937" y2="393.62" stroke="#A2A2A2" stroke-width="2"/>
<line x1="519.14" y1="1.91926" x2="127.44" y2="393.62" stroke="#A2A2A2" stroke-width="2"/>
<line x1="494.645" y1="1.91926" x2="102.944" y2="393.62" stroke="#A2A2A2" stroke-width="2"/>
<line x1="470.148" y1="1.91926" x2="78.4476" y2="393.62" stroke="#A2A2A2" stroke-width="2"/>
<line x1="445.652" y1="1.91926" x2="53.9515" y2="393.62" stroke="#A2A2A2" stroke-width="2"/>
<line x1="421.155" y1="1.91926" x2="29.4549" y2="393.62" stroke="#A2A2A2" stroke-width="2"/>
<line x1="396.659" y1="1.91926" x2="4.95908" y2="393.62" stroke="#A2A2A2" stroke-width="2"/>
<line x1="372.163" y1="1.91926" x2="-19.5375" y2="393.62" stroke="#A2A2A2" stroke-width="2"/>
<line x1="347.667" y1="1.91926" x2="-44.0338" y2="393.62" stroke="#A2A2A2" stroke-width="2"/>
<line x1="323.171" y1="1.91926" x2="-68.5297" y2="393.62" stroke="#A2A2A2" stroke-width="2"/>
<line x1="298.674" y1="1.91926" x2="-93.0263" y2="393.62" stroke="#A2A2A2" stroke-width="2"/>
<line x1="274.178" y1="1.91926" x2="-117.523" y2="393.62" stroke="#A2A2A2" stroke-width="2"/>
<line x1="249.682" y1="1.91926" x2="-142.019" y2="393.62" stroke="#A2A2A2" stroke-width="2"/>
<line x1="225.186" y1="1.91926" x2="-166.515" y2="393.62" stroke="#A2A2A2" stroke-width="2"/>
<line x1="200.689" y1="1.91926" x2="-191.011" y2="393.62" stroke="#A2A2A2" stroke-width="2"/>
<line x1="176.193" y1="1.91926" x2="-215.507" y2="393.62" stroke="#A2A2A2" stroke-width="2"/>
<line x1="151.697" y1="1.91926" x2="-240.004" y2="393.62" stroke="#A2A2A2" stroke-width="2"/>
<line x1="127.201" y1="1.91926" x2="-264.5" y2="393.62" stroke="#A2A2A2" stroke-width="2"/>
<line x1="102.704" y1="1.91926" x2="-288.996" y2="393.62" stroke="#A2A2A2" stroke-width="2"/>
<line x1="78.2081" y1="1.91926" x2="-313.492" y2="393.62" stroke="#A2A2A2" stroke-width="2"/>
<line x1="53.7117" y1="1.91926" x2="-337.989" y2="393.62" stroke="#A2A2A2" stroke-width="2"/>
<line x1="29.2154" y1="1.91926" x2="-362.485" y2="393.62" stroke="#A2A2A2" stroke-width="2"/>
<line x1="16.9671" y1="1.91926" x2="-374.733" y2="393.62" stroke="#A2A2A2" stroke-width="2"/>
<line x1="4.71931" y1="1.91926" x2="-386.981" y2="393.62" stroke="#A2A2A2" stroke-width="2"/>
<line x1="776.351" y1="1.91926" x2="384.651" y2="393.62" stroke="#A2A2A2" stroke-width="2"/>
<line x1="751.855" y1="1.91926" x2="360.154" y2="393.62" stroke="#A2A2A2" stroke-width="2"/>
<line x1="727.359" y1="1.91926" x2="335.658" y2="393.62" stroke="#A2A2A2" stroke-width="2"/>
<line x1="702.862" y1="1.91926" x2="311.162" y2="393.62" stroke="#A2A2A2" stroke-width="2"/>
<line x1="678.366" y1="1.91926" x2="286.666" y2="393.62" stroke="#A2A2A2" stroke-width="2"/>
<line x1="653.87" y1="1.91926" x2="262.17" y2="393.62" stroke="#A2A2A2" stroke-width="2"/>
<line x1="629.374" y1="1.91926" x2="237.673" y2="393.62" stroke="#A2A2A2" stroke-width="2"/>
<line x1="604.878" y1="1.91926" x2="213.177" y2="393.62" stroke="#A2A2A2" stroke-width="2"/>
<line x1="580.381" y1="1.91926" x2="188.681" y2="393.62" stroke="#A2A2A2" stroke-width="2"/>
<line x1="555.885" y1="1.91926" x2="164.184" y2="393.62" stroke="#A2A2A2" stroke-width="2"/>
<line x1="531.389" y1="1.91926" x2="139.688" y2="393.62" stroke="#A2A2A2" stroke-width="2"/>
<line x1="506.892" y1="1.91926" x2="115.192" y2="393.62" stroke="#A2A2A2" stroke-width="2"/>
<line x1="482.396" y1="1.91926" x2="90.6959" y2="393.62" stroke="#A2A2A2" stroke-width="2"/>
<line x1="457.9" y1="1.91926" x2="66.1996" y2="393.62" stroke="#A2A2A2" stroke-width="2"/>
<line x1="433.404" y1="1.91926" x2="41.7032" y2="393.62" stroke="#A2A2A2" stroke-width="2"/>
<line x1="408.907" y1="1.91926" x2="17.2069" y2="393.62" stroke="#A2A2A2" stroke-width="2"/>
<line x1="384.411" y1="1.91926" x2="-7.28921" y2="393.62" stroke="#A2A2A2" stroke-width="2"/>
<line x1="359.915" y1="1.91926" x2="-31.7856" y2="393.62" stroke="#A2A2A2" stroke-width="2"/>
<line x1="335.419" y1="1.91926" x2="-56.2819" y2="393.62" stroke="#A2A2A2" stroke-width="2"/>
<line x1="310.922" y1="1.91926" x2="-80.778" y2="393.62" stroke="#A2A2A2" stroke-width="2"/>
<line x1="286.426" y1="1.91926" x2="-105.274" y2="393.62" stroke="#A2A2A2" stroke-width="2"/>
<line x1="261.93" y1="1.91926" x2="-129.771" y2="393.62" stroke="#A2A2A2" stroke-width="2"/>
<line x1="237.434" y1="1.91926" x2="-154.267" y2="393.62" stroke="#A2A2A2" stroke-width="2"/>
<line x1="212.938" y1="1.91926" x2="-178.763" y2="393.62" stroke="#A2A2A2" stroke-width="2"/>
<line x1="188.441" y1="1.91926" x2="-203.259" y2="393.62" stroke="#A2A2A2" stroke-width="2"/>
<line x1="163.945" y1="1.91926" x2="-227.756" y2="393.62" stroke="#A2A2A2" stroke-width="2"/>
<line x1="139.449" y1="1.91926" x2="-252.252" y2="393.62" stroke="#A2A2A2" stroke-width="2"/>
<line x1="114.952" y1="1.91926" x2="-276.748" y2="393.62" stroke="#A2A2A2" stroke-width="2"/>
<line x1="90.4559" y1="1.91926" x2="-301.245" y2="393.62" stroke="#A2A2A2" stroke-width="2"/>
<line x1="65.9598" y1="1.91926" x2="-325.741" y2="393.62" stroke="#A2A2A2" stroke-width="2"/>
<line x1="41.4637" y1="1.91926" x2="-350.237" y2="393.62" stroke="#A2A2A2" stroke-width="2"/>
</g>
</svg>
