<svg width="393" height="403" viewBox="0 0 393 403" fill="none" xmlns="http://www.w3.org/2000/svg">
<mask id="mask0_42_2" style="mask-type:alpha" maskUnits="userSpaceOnUse" x="0" y="0" width="393" height="403">
<rect width="393" height="403" fill="#C8C8C8"/>
</mask>
<g mask="url(#mask0_42_2)">
<rect width="393" height="403" fill="#3B3B3B"/>
<line x1="748.938" y1="-21.6464" x2="102.731" y2="624.56" stroke="#484848"/>
<line x1="878.588" y1="-21.6464" x2="232.382" y2="624.56" stroke="#484848"/>
<line x1="716.525" y1="-21.6464" x2="70.3189" y2="624.56" stroke="#484848"/>
<line x1="846.176" y1="-21.6464" x2="199.97" y2="624.56" stroke="#484848"/>
<line x1="684.113" y1="-21.6464" x2="37.9063" y2="624.56" stroke="#484848"/>
<line x1="813.763" y1="-21.6464" x2="167.556" y2="624.56" stroke="#484848"/>
<line x1="651.7" y1="-21.6464" x2="5.49374" y2="624.56" stroke="#484848"/>
<line x1="781.351" y1="-21.6464" x2="135.144" y2="624.56" stroke="#484848"/>
<line x1="619.287" y1="-21.6464" x2="-26.9189" y2="624.56" stroke="#484848"/>
<line x1="586.875" y1="-21.6464" x2="-59.3315" y2="624.56" stroke="#484848"/>
<line x1="554.462" y1="-21.6464" x2="-91.7441" y2="624.56" stroke="#484848"/>
<line x1="522.05" y1="-21.6464" x2="-124.157" y2="624.56" stroke="#484848"/>
<line x1="489.637" y1="-21.6464" x2="-156.569" y2="624.56" stroke="#484848"/>
<line x1="457.224" y1="-21.6464" x2="-188.982" y2="624.56" stroke="#484848"/>
<line x1="424.812" y1="-21.6464" x2="-221.394" y2="624.56" stroke="#484848"/>
<line x1="392.399" y1="-21.6464" x2="-253.807" y2="624.56" stroke="#484848"/>
<line x1="359.987" y1="-21.6464" x2="-286.22" y2="624.56" stroke="#484848"/>
<line x1="327.574" y1="-21.6464" x2="-318.632" y2="624.56" stroke="#484848"/>
<line x1="295.161" y1="-21.6464" x2="-351.045" y2="624.56" stroke="#484848"/>
<line x1="262.749" y1="-21.6464" x2="-383.457" y2="624.56" stroke="#484848"/>
<line x1="230.336" y1="-21.6464" x2="-415.87" y2="624.56" stroke="#484848"/>
<line x1="197.924" y1="-21.6464" x2="-448.283" y2="624.56" stroke="#484848"/>
<line x1="165.511" y1="-21.6464" x2="-480.695" y2="624.56" stroke="#484848"/>
<line x1="133.098" y1="-21.6464" x2="-513.108" y2="624.56" stroke="#484848"/>
<line x1="100.686" y1="-21.6464" x2="-545.52" y2="624.56" stroke="#484848"/>
<line x1="68.2732" y1="-21.6464" x2="-577.933" y2="624.56" stroke="#484848"/>
<line x1="35.8606" y1="-21.6464" x2="-610.346" y2="624.56" stroke="#484848"/>
<line x1="3.44804" y1="-21.6464" x2="-642.758" y2="624.56" stroke="#484848"/>
<line x1="894.794" y1="-21.6464" x2="248.588" y2="624.56" stroke="#484848"/>
<line x1="959.62" y1="-21.6464" x2="313.413" y2="624.56" stroke="#484848"/>
<line x1="862.382" y1="-21.6464" x2="216.176" y2="624.56" stroke="#484848"/>
<line x1="943.413" y1="-21.6464" x2="297.207" y2="624.56" stroke="#484848"/>
<line x1="829.969" y1="-21.6464" x2="183.763" y2="624.56" stroke="#484848"/>
<line x1="927.207" y1="-21.6464" x2="281.001" y2="624.56" stroke="#484848"/>
<line x1="797.557" y1="-21.6464" x2="151.35" y2="624.56" stroke="#484848"/>
<line x1="911.001" y1="-21.6464" x2="264.795" y2="624.56" stroke="#484848"/>
<line x1="765.144" y1="-21.6464" x2="118.938" y2="624.56" stroke="#484848"/>
<line x1="732.731" y1="-21.6464" x2="86.5252" y2="624.56" stroke="#484848"/>
<line x1="700.319" y1="-21.6464" x2="54.1126" y2="624.56" stroke="#484848"/>
<line x1="667.906" y1="-21.6464" x2="21.7" y2="624.56" stroke="#484848"/>
<line x1="635.494" y1="-21.6464" x2="-10.7126" y2="624.56" stroke="#484848"/>
<line x1="603.081" y1="-21.6464" x2="-43.1252" y2="624.56" stroke="#484848"/>
<line x1="570.668" y1="-21.6464" x2="-75.5378" y2="624.56" stroke="#484848"/>
<line x1="538.256" y1="-21.6464" x2="-107.95" y2="624.56" stroke="#484848"/>
<line x1="505.843" y1="-21.6464" x2="-140.363" y2="624.56" stroke="#484848"/>
<line x1="473.431" y1="-21.6464" x2="-172.776" y2="624.56" stroke="#484848"/>
<line x1="441.018" y1="-21.6464" x2="-205.188" y2="624.56" stroke="#484848"/>
<line x1="408.606" y1="-21.6464" x2="-237.601" y2="624.56" stroke="#484848"/>
<line x1="376.193" y1="-21.6464" x2="-270.013" y2="624.56" stroke="#484848"/>
<line x1="343.78" y1="-21.6464" x2="-302.426" y2="624.56" stroke="#484848"/>
<line x1="311.368" y1="-21.6464" x2="-334.839" y2="624.56" stroke="#484848"/>
<line x1="278.955" y1="-21.6464" x2="-367.251" y2="624.56" stroke="#484848"/>
<line x1="246.543" y1="-21.6464" x2="-399.664" y2="624.56" stroke="#484848"/>
<line x1="214.13" y1="-21.6464" x2="-432.076" y2="624.56" stroke="#484848"/>
<line x1="181.717" y1="-21.6464" x2="-464.489" y2="624.56" stroke="#484848"/>
<line x1="149.305" y1="-21.6464" x2="-496.902" y2="624.56" stroke="#484848"/>
<line x1="116.892" y1="-21.6464" x2="-529.314" y2="624.56" stroke="#484848"/>
<line x1="84.4795" y1="-21.6464" x2="-561.727" y2="624.56" stroke="#484848"/>
<line x1="52.0669" y1="-21.6464" x2="-594.139" y2="624.56" stroke="#484848"/>
<line x1="19.6543" y1="-21.6464" x2="-626.552" y2="624.56" stroke="#484848"/>
</g>
</svg>
