<svg width="310" height="400" viewBox="0 0 310 400" fill="none" xmlns="http://www.w3.org/2000/svg">
<mask id="mask0_33_1668" style="mask-type:alpha" maskUnits="userSpaceOnUse" x="0" y="0" width="310" height="400">
<rect width="310" height="400" fill="#C8C8C8"/>
</mask>
<g mask="url(#mask0_33_1668)">
<rect width="310" height="400" fill="#3B3B3B"/>
<line x1="845.938" y1="-122.646" x2="199.732" y2="523.56" stroke="#484848"/>
<line x1="813.525" y1="-122.646" x2="167.319" y2="523.56" stroke="#484848"/>
<line x1="943.176" y1="-122.646" x2="296.969" y2="523.56" stroke="#484848"/>
<line x1="781.113" y1="-122.646" x2="134.906" y2="523.56" stroke="#484848"/>
<line x1="910.763" y1="-122.646" x2="264.557" y2="523.56" stroke="#484848"/>
<line x1="748.7" y1="-122.646" x2="102.494" y2="523.56" stroke="#484848"/>
<line x1="878.35" y1="-122.646" x2="232.144" y2="523.56" stroke="#484848"/>
<line x1="716.287" y1="-122.646" x2="70.0811" y2="523.56" stroke="#484848"/>
<line x1="683.875" y1="-122.646" x2="37.6685" y2="523.56" stroke="#484848"/>
<line x1="651.462" y1="-122.646" x2="5.25595" y2="523.56" stroke="#484848"/>
<line x1="619.05" y1="-122.646" x2="-27.1567" y2="523.56" stroke="#484848"/>
<line x1="586.637" y1="-122.646" x2="-59.5692" y2="523.56" stroke="#484848"/>
<line x1="554.224" y1="-122.646" x2="-91.9818" y2="523.56" stroke="#484848"/>
<line x1="521.812" y1="-122.646" x2="-124.394" y2="523.56" stroke="#484848"/>
<line x1="489.399" y1="-122.646" x2="-156.807" y2="523.56" stroke="#484848"/>
<line x1="456.987" y1="-122.646" x2="-189.22" y2="523.56" stroke="#484848"/>
<line x1="424.574" y1="-122.646" x2="-221.632" y2="523.56" stroke="#484848"/>
<line x1="392.161" y1="-122.646" x2="-254.045" y2="523.56" stroke="#484848"/>
<line x1="359.749" y1="-122.646" x2="-286.457" y2="523.56" stroke="#484848"/>
<line x1="327.336" y1="-122.646" x2="-318.87" y2="523.56" stroke="#484848"/>
<line x1="294.924" y1="-122.646" x2="-351.283" y2="523.56" stroke="#484848"/>
<line x1="262.511" y1="-122.646" x2="-383.695" y2="523.56" stroke="#484848"/>
<line x1="230.098" y1="-122.646" x2="-416.108" y2="523.56" stroke="#484848"/>
<line x1="197.686" y1="-122.646" x2="-448.52" y2="523.56" stroke="#484848"/>
<line x1="165.273" y1="-122.646" x2="-480.933" y2="523.56" stroke="#484848"/>
<line x1="132.861" y1="-122.646" x2="-513.346" y2="523.56" stroke="#484848"/>
<line x1="100.448" y1="-122.646" x2="-545.758" y2="523.56" stroke="#484848"/>
<line x1="68.0354" y1="-122.646" x2="-578.171" y2="523.56" stroke="#484848"/>
<line x1="35.6228" y1="-122.646" x2="-610.583" y2="523.56" stroke="#484848"/>
<line x1="3.21024" y1="-122.646" x2="-642.996" y2="523.56" stroke="#484848"/>
<line x1="926.969" y1="-122.646" x2="280.763" y2="523.56" stroke="#484848"/>
<line x1="894.557" y1="-122.646" x2="248.35" y2="523.56" stroke="#484848"/>
<line x1="862.144" y1="-122.646" x2="215.938" y2="523.56" stroke="#484848"/>
<line x1="829.731" y1="-122.646" x2="183.525" y2="523.56" stroke="#484848"/>
<line x1="797.319" y1="-122.646" x2="151.113" y2="523.56" stroke="#484848"/>
<line x1="764.906" y1="-122.646" x2="118.7" y2="523.56" stroke="#484848"/>
<line x1="732.494" y1="-122.646" x2="86.2874" y2="523.56" stroke="#484848"/>
<line x1="700.081" y1="-122.646" x2="53.8748" y2="523.56" stroke="#484848"/>
<line x1="667.668" y1="-122.646" x2="21.4622" y2="523.56" stroke="#484848"/>
<line x1="635.256" y1="-122.646" x2="-10.9504" y2="523.56" stroke="#484848"/>
<line x1="602.843" y1="-122.646" x2="-43.3629" y2="523.56" stroke="#484848"/>
<line x1="570.431" y1="-122.646" x2="-75.7756" y2="523.56" stroke="#484848"/>
<line x1="538.018" y1="-122.646" x2="-108.188" y2="523.56" stroke="#484848"/>
<line x1="505.606" y1="-122.646" x2="-140.601" y2="523.56" stroke="#484848"/>
<line x1="473.193" y1="-122.646" x2="-173.013" y2="523.56" stroke="#484848"/>
<line x1="440.78" y1="-122.646" x2="-205.426" y2="523.56" stroke="#484848"/>
<line x1="408.368" y1="-122.646" x2="-237.839" y2="523.56" stroke="#484848"/>
<line x1="375.955" y1="-122.646" x2="-270.251" y2="523.56" stroke="#484848"/>
<line x1="343.543" y1="-122.646" x2="-302.664" y2="523.56" stroke="#484848"/>
<line x1="311.13" y1="-122.646" x2="-335.076" y2="523.56" stroke="#484848"/>
<line x1="278.717" y1="-122.646" x2="-367.489" y2="523.56" stroke="#484848"/>
<line x1="246.305" y1="-122.646" x2="-399.902" y2="523.56" stroke="#484848"/>
<line x1="213.892" y1="-122.646" x2="-432.314" y2="523.56" stroke="#484848"/>
<line x1="181.48" y1="-122.646" x2="-464.727" y2="523.56" stroke="#484848"/>
<line x1="149.067" y1="-122.646" x2="-497.139" y2="523.56" stroke="#484848"/>
<line x1="116.654" y1="-122.646" x2="-529.552" y2="523.56" stroke="#484848"/>
<line x1="84.2417" y1="-122.646" x2="-561.965" y2="523.56" stroke="#484848"/>
<line x1="51.8291" y1="-122.646" x2="-594.377" y2="523.56" stroke="#484848"/>
<line x1="19.4165" y1="-122.646" x2="-626.79" y2="523.56" stroke="#484848"/>
</g>
<mask id="mask1_33_1668" style="mask-type:alpha" maskUnits="userSpaceOnUse" x="234" y="20" width="56" height="56">
<rect x="234.5" y="20.5" width="55" height="55" fill="white" stroke="#5A5A5A"/>
</mask>
<g mask="url(#mask1_33_1668)">
<rect x="234.5" y="20.5" width="55" height="55" fill="white" stroke="#5A5A5A"/>
<line x1="294.177" y1="16.1768" x2="232.177" y2="78.1768" stroke="#5A5A5A" stroke-width="0.5"/>
<line x1="299.177" y1="20.1768" x2="237.177" y2="82.1768" stroke="#5A5A5A" stroke-width="0.5"/>
<line x1="304.177" y1="24.1768" x2="242.177" y2="86.1768" stroke="#5A5A5A" stroke-width="0.5"/>
<line x1="309.177" y1="28.1768" x2="247.177" y2="90.1768" stroke="#5A5A5A" stroke-width="0.5"/>
<line x1="314.177" y1="32.1768" x2="252.177" y2="94.1768" stroke="#5A5A5A" stroke-width="0.5"/>
<line x1="319.177" y1="36.1768" x2="257.177" y2="98.1768" stroke="#5A5A5A" stroke-width="0.5"/>
<line x1="289.177" y1="12.1768" x2="227.177" y2="74.1768" stroke="#5A5A5A" stroke-width="0.5"/>
<line x1="279.177" y1="4.17678" x2="217.177" y2="66.1768" stroke="#5A5A5A" stroke-width="0.5"/>
<line x1="274.177" y1="0.176777" x2="212.177" y2="62.1768" stroke="#5A5A5A" stroke-width="0.5"/>
<line x1="269.177" y1="-3.82322" x2="207.177" y2="58.1768" stroke="#5A5A5A" stroke-width="0.5"/>
<line x1="284.177" y1="8.17678" x2="222.177" y2="70.1768" stroke="#5A5A5A" stroke-width="0.5"/>
</g>
</svg>
