<svg width="392" height="428" viewBox="0 0 392 428" fill="none" xmlns="http://www.w3.org/2000/svg">
<mask id="mask0_71_9" style="mask-type:alpha" maskUnits="userSpaceOnUse" x="0" y="0" width="392" height="428">
<path d="M0 0H392V428H0V0Z" fill="#F2F2F2"/>
</mask>
<g mask="url(#mask0_71_9)">
<mask id="path-2-inside-1_71_9" fill="white">
<path d="M0 0H392V428H0V0Z"/>
</mask>
<path d="M0 0H392V428H0V0Z" fill="#F2F2F2"/>
<path d="M391 0V428H393V0H391ZM1 428V0H-1V428H1Z" fill="#A2A2A2" mask="url(#path-2-inside-1_71_9)"/>
<line opacity="0.4" x1="582.354" y1="-1.64645" x2="154.354" y2="426.354" stroke="#A2A2A2"/>
<line opacity="0.4" x1="734.354" y1="-1.64645" x2="306.354" y2="426.354" stroke="#A2A2A2"/>
<line opacity="0.4" x1="544.354" y1="-1.64645" x2="116.354" y2="426.354" stroke="#A2A2A2"/>
<line opacity="0.4" x1="696.354" y1="-1.64645" x2="268.354" y2="426.354" stroke="#A2A2A2"/>
<line opacity="0.4" x1="810.354" y1="-1.64645" x2="382.354" y2="426.354" stroke="#A2A2A2"/>
<line opacity="0.4" x1="791.354" y1="-1.64645" x2="363.354" y2="426.354" stroke="#A2A2A2"/>
<line opacity="0.4" x1="772.354" y1="-1.64645" x2="344.354" y2="426.354" stroke="#A2A2A2"/>
<line opacity="0.4" x1="753.354" y1="-1.64645" x2="325.354" y2="426.354" stroke="#A2A2A2"/>
<line opacity="0.4" x1="715.354" y1="-1.64645" x2="287.354" y2="426.354" stroke="#A2A2A2"/>
<line opacity="0.4" x1="677.354" y1="-1.64645" x2="249.354" y2="426.354" stroke="#A2A2A2"/>
<line opacity="0.4" x1="639.354" y1="-1.64645" x2="211.354" y2="426.354" stroke="#A2A2A2"/>
<line opacity="0.4" x1="601.354" y1="-1.64645" x2="173.354" y2="426.354" stroke="#A2A2A2"/>
<line opacity="0.4" x1="563.354" y1="-1.64645" x2="135.354" y2="426.354" stroke="#A2A2A2"/>
<line opacity="0.4" x1="525.354" y1="-1.64645" x2="97.3535" y2="426.354" stroke="#A2A2A2"/>
<line opacity="0.4" x1="506.354" y1="-1.64645" x2="78.3535" y2="426.354" stroke="#A2A2A2"/>
<line opacity="0.4" x1="658.354" y1="-1.64645" x2="230.354" y2="426.354" stroke="#A2A2A2"/>
<line opacity="0.4" x1="487.354" y1="-1.64645" x2="59.3535" y2="426.354" stroke="#A2A2A2"/>
<line opacity="0.4" x1="620.354" y1="-1.64645" x2="192.354" y2="426.354" stroke="#A2A2A2"/>
<line opacity="0.4" x1="468.354" y1="-1.64645" x2="40.3535" y2="426.354" stroke="#A2A2A2"/>
<line opacity="0.4" x1="449.354" y1="-1.64645" x2="21.3535" y2="426.354" stroke="#A2A2A2"/>
<line opacity="0.4" x1="430.354" y1="-1.64645" x2="2.35353" y2="426.354" stroke="#A2A2A2"/>
<line opacity="0.4" x1="411.354" y1="-1.64645" x2="-16.6465" y2="426.354" stroke="#A2A2A2"/>
<line opacity="0.4" x1="392.354" y1="-1.64645" x2="-35.6465" y2="426.354" stroke="#A2A2A2"/>
<line opacity="0.4" x1="373.354" y1="-1.64645" x2="-54.6465" y2="426.354" stroke="#A2A2A2"/>
<line opacity="0.4" x1="354.354" y1="-1.64645" x2="-73.6465" y2="426.354" stroke="#A2A2A2"/>
<line opacity="0.4" x1="335.354" y1="-1.64645" x2="-92.6465" y2="426.354" stroke="#A2A2A2"/>
<line opacity="0.4" x1="316.354" y1="-1.64645" x2="-111.646" y2="426.354" stroke="#A2A2A2"/>
<line opacity="0.4" x1="297.354" y1="-1.64645" x2="-130.646" y2="426.354" stroke="#A2A2A2"/>
<line opacity="0.4" x1="278.354" y1="-1.64645" x2="-149.646" y2="426.354" stroke="#A2A2A2"/>
<line opacity="0.4" x1="259.354" y1="-1.64645" x2="-168.646" y2="426.354" stroke="#A2A2A2"/>
<line opacity="0.4" x1="240.354" y1="-1.64645" x2="-187.646" y2="426.354" stroke="#A2A2A2"/>
<line opacity="0.4" x1="221.354" y1="-1.64645" x2="-206.646" y2="426.354" stroke="#A2A2A2"/>
<line opacity="0.4" x1="202.354" y1="-1.64645" x2="-225.646" y2="426.354" stroke="#A2A2A2"/>
<line opacity="0.4" x1="183.354" y1="-1.64645" x2="-244.646" y2="426.354" stroke="#A2A2A2"/>
<line opacity="0.4" x1="164.354" y1="-1.64645" x2="-263.646" y2="426.354" stroke="#A2A2A2"/>
<line opacity="0.4" x1="145.354" y1="-1.64645" x2="-282.646" y2="426.354" stroke="#A2A2A2"/>
<line opacity="0.4" x1="126.354" y1="-1.64645" x2="-301.646" y2="426.354" stroke="#A2A2A2"/>
<line opacity="0.4" x1="107.354" y1="-1.64645" x2="-320.646" y2="426.354" stroke="#A2A2A2"/>
<line opacity="0.4" x1="88.3536" y1="-1.64645" x2="-339.646" y2="426.354" stroke="#A2A2A2"/>
<line opacity="0.4" x1="69.3536" y1="-1.64645" x2="-358.646" y2="426.354" stroke="#A2A2A2"/>
<line opacity="0.4" x1="50.3536" y1="-1.64645" x2="-377.646" y2="426.354" stroke="#A2A2A2"/>
<line opacity="0.4" x1="31.3536" y1="-1.64645" x2="-396.646" y2="426.354" stroke="#A2A2A2"/>
<line opacity="0.4" x1="12.3536" y1="-1.64645" x2="-415.646" y2="426.354" stroke="#A2A2A2"/>
</g>
<mask id="mask1_71_9" style="mask-type:alpha" maskUnits="userSpaceOnUse" x="59" y="77" width="274" height="274">
<rect x="59" y="77" width="274" height="274" fill="#C8C8C8"/>
</mask>
<g mask="url(#mask1_71_9)">
<rect x="59.5" y="77.5" width="273" height="273" fill="#3B3B3B" stroke="#A2A2A2"/>
<line x1="666.163" y1="52.8758" x2="326.231" y2="392.807" stroke="#A2A2A2" stroke-width="2"/>
<line x1="647.069" y1="52.8758" x2="307.138" y2="392.807" stroke="#A2A2A2" stroke-width="2"/>
<line x1="627.976" y1="52.8758" x2="288.044" y2="392.807" stroke="#A2A2A2" stroke-width="2"/>
<line x1="608.882" y1="52.8758" x2="268.951" y2="392.807" stroke="#A2A2A2" stroke-width="2"/>
<line x1="589.789" y1="52.8758" x2="249.857" y2="392.807" stroke="#A2A2A2" stroke-width="2"/>
<line x1="570.695" y1="52.8758" x2="230.764" y2="392.807" stroke="#A2A2A2" stroke-width="2"/>
<line x1="551.601" y1="52.8758" x2="211.67" y2="392.807" stroke="#A2A2A2" stroke-width="2"/>
<line x1="532.508" y1="52.8758" x2="192.577" y2="392.807" stroke="#A2A2A2" stroke-width="2"/>
<line x1="513.414" y1="52.8758" x2="173.483" y2="392.807" stroke="#A2A2A2" stroke-width="2"/>
<line x1="494.321" y1="52.8758" x2="154.39" y2="392.807" stroke="#A2A2A2" stroke-width="2"/>
<line x1="475.227" y1="52.8758" x2="135.296" y2="392.807" stroke="#A2A2A2" stroke-width="2"/>
<line x1="456.134" y1="52.8758" x2="116.203" y2="392.807" stroke="#A2A2A2" stroke-width="2"/>
<line x1="437.04" y1="52.8758" x2="97.1091" y2="392.807" stroke="#A2A2A2" stroke-width="2"/>
<line x1="417.947" y1="52.8758" x2="78.0156" y2="392.807" stroke="#A2A2A2" stroke-width="2"/>
<line x1="398.853" y1="52.8758" x2="58.9218" y2="392.807" stroke="#A2A2A2" stroke-width="2"/>
<line x1="379.76" y1="52.8758" x2="39.8286" y2="392.807" stroke="#A2A2A2" stroke-width="2"/>
<line x1="360.666" y1="52.8758" x2="20.7348" y2="392.807" stroke="#A2A2A2" stroke-width="2"/>
<line x1="341.573" y1="52.8758" x2="1.64132" y2="392.807" stroke="#A2A2A2" stroke-width="2"/>
<line x1="322.479" y1="52.8758" x2="-17.4522" y2="392.807" stroke="#A2A2A2" stroke-width="2"/>
<line x1="303.386" y1="52.8758" x2="-36.5457" y2="392.807" stroke="#A2A2A2" stroke-width="2"/>
<line x1="284.292" y1="52.8758" x2="-55.6392" y2="392.807" stroke="#A2A2A2" stroke-width="2"/>
<line x1="265.199" y1="52.8758" x2="-74.7327" y2="392.807" stroke="#A2A2A2" stroke-width="2"/>
<line x1="246.105" y1="52.8758" x2="-93.8262" y2="392.807" stroke="#A2A2A2" stroke-width="2"/>
<line x1="227.012" y1="52.8758" x2="-112.92" y2="392.807" stroke="#A2A2A2" stroke-width="2"/>
<line x1="207.918" y1="52.8758" x2="-132.013" y2="392.807" stroke="#A2A2A2" stroke-width="2"/>
<line x1="188.824" y1="52.8758" x2="-151.107" y2="392.807" stroke="#A2A2A2" stroke-width="2"/>
<line x1="169.731" y1="52.8758" x2="-170.2" y2="392.807" stroke="#A2A2A2" stroke-width="2"/>
<line x1="150.637" y1="52.8758" x2="-189.294" y2="392.807" stroke="#A2A2A2" stroke-width="2"/>
<line x1="131.544" y1="52.8758" x2="-208.387" y2="392.807" stroke="#A2A2A2" stroke-width="2"/>
<line x1="112.45" y1="52.8758" x2="-227.481" y2="392.807" stroke="#A2A2A2" stroke-width="2"/>
<line x1="93.3568" y1="52.8758" x2="-246.574" y2="392.807" stroke="#A2A2A2" stroke-width="2"/>
<line x1="74.2633" y1="52.8758" x2="-265.668" y2="392.807" stroke="#A2A2A2" stroke-width="2"/>
</g>
</svg>
