<svg width="393" height="430" viewBox="0 0 393 430" fill="none" xmlns="http://www.w3.org/2000/svg">
<mask id="mask0_71_9" style="mask-type:alpha" maskUnits="userSpaceOnUse" x="0" y="0" width="393" height="430">
<path d="M0 0.908203H393V430H0V0.908203Z" fill="#F2F2F2"/>
</mask>
<g mask="url(#mask0_71_9)">
<path d="M0 0.908203H393V430H0V0.908203Z" fill="#F2F2F2"/>
<line opacity="0.4" x1="583.838" y1="-0.74337" x2="154.747" y2="428.348" stroke="#A2A2A2"/>
<line opacity="0.4" x1="736.226" y1="-0.74337" x2="307.134" y2="428.348" stroke="#A2A2A2"/>
<line opacity="0.4" x1="545.741" y1="-0.74337" x2="116.649" y2="428.348" stroke="#A2A2A2"/>
<line opacity="0.4" x1="698.129" y1="-0.74337" x2="269.037" y2="428.348" stroke="#A2A2A2"/>
<line opacity="0.4" x1="812.42" y1="-0.74337" x2="383.328" y2="428.348" stroke="#A2A2A2"/>
<line opacity="0.4" x1="793.371" y1="-0.74337" x2="364.279" y2="428.348" stroke="#A2A2A2"/>
<line opacity="0.4" x1="774.323" y1="-0.74337" x2="345.231" y2="428.348" stroke="#A2A2A2"/>
<line opacity="0.4" x1="755.274" y1="-0.74337" x2="326.183" y2="428.348" stroke="#A2A2A2"/>
<line opacity="0.4" x1="717.178" y1="-0.74337" x2="288.086" y2="428.348" stroke="#A2A2A2"/>
<line opacity="0.4" x1="679.081" y1="-0.74337" x2="249.989" y2="428.348" stroke="#A2A2A2"/>
<line opacity="0.4" x1="640.984" y1="-0.74337" x2="211.892" y2="428.348" stroke="#A2A2A2"/>
<line opacity="0.4" x1="602.887" y1="-0.74337" x2="173.795" y2="428.348" stroke="#A2A2A2"/>
<line opacity="0.4" x1="564.79" y1="-0.74337" x2="135.698" y2="428.348" stroke="#A2A2A2"/>
<line opacity="0.4" x1="526.693" y1="-0.74337" x2="97.6011" y2="428.348" stroke="#A2A2A2"/>
<line opacity="0.4" x1="507.644" y1="-0.74337" x2="78.5525" y2="428.348" stroke="#A2A2A2"/>
<line opacity="0.4" x1="660.032" y1="-0.74337" x2="230.94" y2="428.348" stroke="#A2A2A2"/>
<line opacity="0.4" x1="488.596" y1="-0.74337" x2="59.5041" y2="428.348" stroke="#A2A2A2"/>
<line opacity="0.4" x1="621.935" y1="-0.74337" x2="192.843" y2="428.348" stroke="#A2A2A2"/>
<line opacity="0.4" x1="469.547" y1="-0.74337" x2="40.4556" y2="428.348" stroke="#A2A2A2"/>
<line opacity="0.4" x1="450.499" y1="-0.74337" x2="21.4072" y2="428.348" stroke="#A2A2A2"/>
<line opacity="0.4" x1="431.45" y1="-0.74337" x2="2.35863" y2="428.348" stroke="#A2A2A2"/>
<line opacity="0.4" x1="412.402" y1="-0.74337" x2="-16.69" y2="428.348" stroke="#A2A2A2"/>
<line opacity="0.4" x1="393.354" y1="-0.74337" x2="-35.7383" y2="428.348" stroke="#A2A2A2"/>
<line opacity="0.4" x1="374.305" y1="-0.74337" x2="-54.7866" y2="428.348" stroke="#A2A2A2"/>
<line opacity="0.4" x1="355.257" y1="-0.74337" x2="-73.8352" y2="428.348" stroke="#A2A2A2"/>
<line opacity="0.4" x1="336.208" y1="-0.74337" x2="-92.8838" y2="428.348" stroke="#A2A2A2"/>
<line opacity="0.4" x1="317.16" y1="-0.74337" x2="-111.932" y2="428.348" stroke="#A2A2A2"/>
<line opacity="0.4" x1="298.111" y1="-0.74337" x2="-130.981" y2="428.348" stroke="#A2A2A2"/>
<line opacity="0.4" x1="279.063" y1="-0.74337" x2="-150.029" y2="428.348" stroke="#A2A2A2"/>
<line opacity="0.4" x1="260.014" y1="-0.74337" x2="-169.078" y2="428.348" stroke="#A2A2A2"/>
<line opacity="0.4" x1="240.966" y1="-0.74337" x2="-188.126" y2="428.348" stroke="#A2A2A2"/>
<line opacity="0.4" x1="221.917" y1="-0.74337" x2="-207.175" y2="428.348" stroke="#A2A2A2"/>
<line opacity="0.4" x1="202.869" y1="-0.74337" x2="-226.223" y2="428.348" stroke="#A2A2A2"/>
<line opacity="0.4" x1="183.82" y1="-0.74337" x2="-245.271" y2="428.348" stroke="#A2A2A2"/>
<line opacity="0.4" x1="164.772" y1="-0.74337" x2="-264.32" y2="428.348" stroke="#A2A2A2"/>
<line opacity="0.4" x1="145.723" y1="-0.74337" x2="-283.368" y2="428.348" stroke="#A2A2A2"/>
<line opacity="0.4" x1="126.675" y1="-0.74337" x2="-302.417" y2="428.348" stroke="#A2A2A2"/>
<line opacity="0.4" x1="107.627" y1="-0.74337" x2="-321.465" y2="428.348" stroke="#A2A2A2"/>
<line opacity="0.4" x1="88.5782" y1="-0.74337" x2="-340.514" y2="428.348" stroke="#A2A2A2"/>
<line opacity="0.4" x1="69.5296" y1="-0.74337" x2="-359.562" y2="428.348" stroke="#A2A2A2"/>
<line opacity="0.4" x1="50.481" y1="-0.74337" x2="-378.611" y2="428.348" stroke="#A2A2A2"/>
<line opacity="0.4" x1="31.4327" y1="-0.74337" x2="-397.659" y2="428.348" stroke="#A2A2A2"/>
<line opacity="0.4" x1="12.3841" y1="-0.74337" x2="-416.708" y2="428.348" stroke="#A2A2A2"/>
</g>
<mask id="mask1_71_9" style="mask-type:alpha" maskUnits="userSpaceOnUse" x="59" y="78" width="275" height="275">
<rect x="59.1504" y="78.1047" width="274.699" height="274.699" fill="#C8C8C8"/>
</mask>
<g mask="url(#mask1_71_9)">
<rect x="59.6504" y="78.6047" width="273.699" height="273.699" fill="#3B3B3B" stroke="#A2A2A2"/>
<line x1="667.86" y1="53.9173" x2="327.062" y2="394.716" stroke="#A2A2A2" stroke-width="2"/>
<line x1="648.718" y1="53.9173" x2="307.92" y2="394.716" stroke="#A2A2A2" stroke-width="2"/>
<line x1="629.576" y1="53.9173" x2="288.777" y2="394.716" stroke="#A2A2A2" stroke-width="2"/>
<line x1="610.433" y1="53.9173" x2="269.635" y2="394.716" stroke="#A2A2A2" stroke-width="2"/>
<line x1="591.291" y1="53.9173" x2="250.493" y2="394.716" stroke="#A2A2A2" stroke-width="2"/>
<line x1="572.149" y1="53.9173" x2="231.351" y2="394.716" stroke="#A2A2A2" stroke-width="2"/>
<line x1="553.007" y1="53.9173" x2="212.208" y2="394.716" stroke="#A2A2A2" stroke-width="2"/>
<line x1="533.865" y1="53.9173" x2="193.066" y2="394.716" stroke="#A2A2A2" stroke-width="2"/>
<line x1="514.722" y1="53.9173" x2="173.924" y2="394.716" stroke="#A2A2A2" stroke-width="2"/>
<line x1="495.58" y1="53.9173" x2="154.782" y2="394.716" stroke="#A2A2A2" stroke-width="2"/>
<line x1="476.438" y1="53.9173" x2="135.639" y2="394.716" stroke="#A2A2A2" stroke-width="2"/>
<line x1="457.296" y1="53.9173" x2="116.497" y2="394.716" stroke="#A2A2A2" stroke-width="2"/>
<line x1="438.153" y1="53.9173" x2="97.3549" y2="394.716" stroke="#A2A2A2" stroke-width="2"/>
<line x1="419.011" y1="53.9173" x2="78.2129" y2="394.716" stroke="#A2A2A2" stroke-width="2"/>
<line x1="399.869" y1="53.9173" x2="59.0703" y2="394.716" stroke="#A2A2A2" stroke-width="2"/>
<line x1="380.727" y1="53.9173" x2="39.9284" y2="394.716" stroke="#A2A2A2" stroke-width="2"/>
<line x1="361.584" y1="53.9173" x2="20.7859" y2="394.716" stroke="#A2A2A2" stroke-width="2"/>
<line x1="342.442" y1="53.9173" x2="1.64377" y2="394.716" stroke="#A2A2A2" stroke-width="2"/>
<line x1="323.3" y1="53.9173" x2="-17.4986" y2="394.716" stroke="#A2A2A2" stroke-width="2"/>
<line x1="304.158" y1="53.9173" x2="-36.6407" y2="394.716" stroke="#A2A2A2" stroke-width="2"/>
<line x1="285.015" y1="53.9173" x2="-55.783" y2="394.716" stroke="#A2A2A2" stroke-width="2"/>
<line x1="265.873" y1="53.9173" x2="-74.9251" y2="394.716" stroke="#A2A2A2" stroke-width="2"/>
<line x1="246.731" y1="53.9173" x2="-94.0674" y2="394.716" stroke="#A2A2A2" stroke-width="2"/>
<line x1="227.589" y1="53.9173" x2="-113.21" y2="394.716" stroke="#A2A2A2" stroke-width="2"/>
<line x1="208.447" y1="53.9173" x2="-132.352" y2="394.716" stroke="#A2A2A2" stroke-width="2"/>
<line x1="189.304" y1="53.9173" x2="-151.494" y2="394.716" stroke="#A2A2A2" stroke-width="2"/>
<line x1="170.162" y1="53.9173" x2="-170.637" y2="394.716" stroke="#A2A2A2" stroke-width="2"/>
<line x1="151.02" y1="53.9173" x2="-189.779" y2="394.716" stroke="#A2A2A2" stroke-width="2"/>
<line x1="131.878" y1="53.9173" x2="-208.921" y2="394.716" stroke="#A2A2A2" stroke-width="2"/>
<line x1="112.735" y1="53.9173" x2="-228.063" y2="394.716" stroke="#A2A2A2" stroke-width="2"/>
<line x1="93.5931" y1="53.9173" x2="-247.205" y2="394.716" stroke="#A2A2A2" stroke-width="2"/>
<line x1="74.451" y1="53.9173" x2="-266.347" y2="394.716" stroke="#A2A2A2" stroke-width="2"/>
</g>
</svg>
