<svg width="393" height="451" viewBox="0 0 393 451" fill="none" xmlns="http://www.w3.org/2000/svg">
<mask id="mask0_35_2098" style="mask-type:alpha" maskUnits="userSpaceOnUse" x="0" y="0" width="393" height="451">
<path d="M0 0.139069H393V450.861H0V0.139069Z" fill="#F2F2F2"/>
</mask>
<g mask="url(#mask0_35_2098)">
<path d="M0 0.139069H393V450.861H0V0.139069Z" fill="#F2F2F2"/>
<line opacity="0.2" x1="833.022" y1="-36.3511" x2="345.457" y2="451.215" stroke="#A2A2A2"/>
<line opacity="0.2" x1="808.46" y1="-36.3511" x2="320.894" y2="451.215" stroke="#A2A2A2"/>
<line opacity="0.2" x1="783.897" y1="-36.3511" x2="296.332" y2="451.215" stroke="#A2A2A2"/>
<line opacity="0.2" x1="759.335" y1="-36.3511" x2="271.769" y2="451.215" stroke="#A2A2A2"/>
<line opacity="0.2" x1="857.585" y1="-36.3511" x2="370.019" y2="451.215" stroke="#A2A2A2"/>
<line opacity="0.2" x1="734.772" y1="-36.3511" x2="247.207" y2="451.215" stroke="#A2A2A2"/>
<line opacity="0.2" x1="710.21" y1="-36.3511" x2="222.644" y2="451.215" stroke="#A2A2A2"/>
<line opacity="0.2" x1="685.647" y1="-36.3511" x2="198.082" y2="451.215" stroke="#A2A2A2"/>
<line opacity="0.2" x1="661.085" y1="-36.3511" x2="173.519" y2="451.215" stroke="#A2A2A2"/>
<line opacity="0.2" x1="636.522" y1="-36.3511" x2="148.957" y2="451.215" stroke="#A2A2A2"/>
<line opacity="0.2" x1="611.96" y1="-36.3511" x2="124.394" y2="451.215" stroke="#A2A2A2"/>
<line opacity="0.2" x1="587.397" y1="-36.3511" x2="99.8316" y2="451.215" stroke="#A2A2A2"/>
<line opacity="0.2" x1="562.835" y1="-36.3511" x2="75.2691" y2="451.215" stroke="#A2A2A2"/>
<line opacity="0.2" x1="538.272" y1="-36.3511" x2="50.7066" y2="451.215" stroke="#A2A2A2"/>
<line opacity="0.2" x1="513.71" y1="-36.3511" x2="26.1441" y2="451.215" stroke="#A2A2A2"/>
<line opacity="0.2" x1="489.147" y1="-36.3511" x2="1.5816" y2="451.215" stroke="#A2A2A2"/>
<line opacity="0.2" x1="464.585" y1="-36.3511" x2="-22.9809" y2="451.215" stroke="#A2A2A2"/>
<line opacity="0.2" x1="440.022" y1="-36.3511" x2="-47.5434" y2="451.215" stroke="#A2A2A2"/>
<line opacity="0.2" x1="415.46" y1="-36.3511" x2="-72.1059" y2="451.215" stroke="#A2A2A2"/>
<line opacity="0.2" x1="390.897" y1="-36.3511" x2="-96.6684" y2="451.215" stroke="#A2A2A2"/>
<line opacity="0.2" x1="366.335" y1="-36.3511" x2="-121.231" y2="451.215" stroke="#A2A2A2"/>
<line opacity="0.2" x1="341.772" y1="-36.3511" x2="-145.793" y2="451.215" stroke="#A2A2A2"/>
<line opacity="0.2" x1="317.21" y1="-36.3511" x2="-170.356" y2="451.215" stroke="#A2A2A2"/>
<line opacity="0.2" x1="292.647" y1="-36.3511" x2="-194.918" y2="451.215" stroke="#A2A2A2"/>
<line opacity="0.2" x1="268.085" y1="-36.3511" x2="-219.481" y2="451.215" stroke="#A2A2A2"/>
<line opacity="0.2" x1="243.522" y1="-36.3511" x2="-244.043" y2="451.215" stroke="#A2A2A2"/>
<line opacity="0.2" x1="218.96" y1="-36.3511" x2="-268.606" y2="451.215" stroke="#A2A2A2"/>
<line opacity="0.2" x1="194.397" y1="-36.3511" x2="-293.168" y2="451.215" stroke="#A2A2A2"/>
<line opacity="0.2" x1="169.835" y1="-36.3511" x2="-317.731" y2="451.215" stroke="#A2A2A2"/>
<line opacity="0.2" x1="145.272" y1="-36.3511" x2="-342.293" y2="451.215" stroke="#A2A2A2"/>
<line opacity="0.2" x1="120.71" y1="-36.3511" x2="-366.856" y2="451.215" stroke="#A2A2A2"/>
<line opacity="0.2" x1="96.1473" y1="-36.3511" x2="-391.418" y2="451.215" stroke="#A2A2A2"/>
<line opacity="0.2" x1="71.5848" y1="-36.3511" x2="-415.981" y2="451.215" stroke="#A2A2A2"/>
<line opacity="0.2" x1="47.0223" y1="-36.3511" x2="-440.543" y2="451.215" stroke="#A2A2A2"/>
</g>
</svg>
